<svg xmlns="http://www.w3.org/2000/svg" viewBox="0 0 528.4 512" role="img" aria-label="Fildor">

<path fill="#173B36" fill-rule="evenodd" d="M224.1 0C220.5 0.3 216.5 0.8 212.3 2.4C208 4 202.2 7.2 198.6 9.7C195 12.2 193.3 14.2 190.9 17.3C188.4 20.4 185.5 25.1 183.9 28.2C182.2 31.4 181.7 33.6 180.9 36.4C180.2 39.3 179.8 36 179.5 45.6C179.2 55.1 179 93.8 179 93.8C179 93.8 180.1 94.6 171.3 95.8C162.4 96.9 136.4 99.1 125.7 100.7C115.1 102.3 113.7 103.3 107.5 105.3C101.3 107.3 93.8 110.3 88.4 112.8C82.9 115.3 79.9 116.8 74.7 120.1C69.5 123.4 62.7 128.2 57.4 132.6C52.1 136.9 47.1 141.6 42.8 146.1C38.5 150.6 35 154.6 31.5 159.4C28 164.2 24.5 169.9 21.6 174.9C18.8 179.9 16.5 184.6 14.3 189.5C12.2 194.4 10.7 197.7 8.8 204.1C6.8 210.4 4.1 220.2 2.6 227.8C1.1 235.3 0.2 242.3 -0.3 249.6C-0.8 256.9 -0.9 262.8 -0.4 271.5C0.1 280.1 1.3 292.9 2.7 301.6C4.1 310.2 5.7 315.5 8 323.4C10.4 331.3 14.2 341.9 16.9 348.9C19.6 355.9 20.2 357.7 24.3 365.3C28.5 372.9 36.2 386.1 41.8 394.5C47.4 402.8 52.1 408.6 58 415.4C63.8 422.3 70.4 429.2 76.8 435.5C83.3 441.7 90.5 447.9 96.6 452.8C102.6 457.7 106 460.3 113 464.8C120 469.3 130.3 475.5 138.5 479.9C146.7 484.3 154.3 487.8 162.2 491.1C170.1 494.4 177.7 497.1 185.9 499.6C194 502.2 203.2 504.5 211.4 506.2C219.6 507.9 226.5 509 235 509.8C243.5 510.7 254 511.3 262.4 511.4C270.7 511.5 276.5 511.5 285.2 510.7C293.8 510 304.6 508.8 314.3 507C324 505.1 335 502.1 343.5 499.7C352 497.2 357.1 495.5 365.3 492.2C373.5 488.8 384.2 483.9 392.7 479.5C401.2 475.1 408.7 470.8 416.3 465.8C423.9 460.8 432.3 454.2 438.2 449.5C444.1 444.8 447.2 442 451.9 437.5C456.6 433 461.8 427.7 466.4 422.5C471.1 417.3 475.1 412.4 479.6 406.3C484.1 400.3 489.4 392.4 493.2 386.3C497 380.2 499 376.7 502.3 369.9C505.7 363 510.3 352.6 513.2 345.3C516 338 517.4 333.6 519.4 326.1C521.4 318.7 523.6 308.7 525 300.6C526.4 292.6 527.3 286.4 527.7 277.9C528.2 269.4 528.2 258 527.8 249.6C527.3 241.3 526.4 235 525.1 227.8C523.8 220.5 521.7 212.3 519.9 205.9C518.2 199.5 516.9 195.6 514.4 189.5C511.9 183.4 508.4 175.7 505 169.5C501.6 163.2 497.5 157 494 152.1C490.6 147.3 488.1 144.4 484.3 140.3C480.4 136.2 476.3 131.8 470.9 127.5C465.5 123.2 457.2 117.7 451.9 114.5C446.6 111.3 444.7 110.4 439.1 108.1C433.5 105.9 425.6 102.8 418.2 101C410.7 99.2 425.3 98 394.5 97.3C363.7 96.5 233.2 96.5 233.2 96.5L233.2 95.3C233.2 95.3 246.3 86.9 251.4 82.4C256.6 77.9 261.4 72 264.3 68.3C267.3 64.6 268 62.6 269.2 60.1C270.4 57.7 271 56.3 271.6 53.8C272.3 51.2 273 47.2 273.3 44.6C273.5 42.1 273.5 40.8 273.1 38.3C272.7 35.7 271.8 31.7 271 29.2C270.2 26.6 269.7 25.2 268.3 22.8C266.9 20.3 264.6 16.9 262.5 14.6C260.5 12.2 258.2 10.2 256 8.5C253.8 6.9 251.8 5.7 249.6 4.6C247.3 3.4 244.9 2.5 242.3 1.7C239.8 1 237.2 0.4 234.1 0.1C231.1 -0.1 227.8 -0.4 224.1 0ZM222.5 21.9C225.3 21.6 231.4 21.6 234.1 21.9C236.8 22.2 236.9 22.5 238.7 23.6C240.5 24.6 243.1 25.9 245.1 28.2C247.1 30.5 249.6 34.9 250.7 37.4C251.7 39.8 251.7 40.7 251.6 42.8C251.6 44.9 251.6 47.4 250.5 50.1C249.5 52.8 248.6 55.6 245.4 59.2C242.2 62.9 236 68.5 231.4 72C226.8 75.6 221.5 78.4 217.7 80.4C213.9 82.4 211.1 83.4 208.6 84.2C206.2 85 203.2 85.2 203.2 85.2C203.2 85.2 202 88.9 201.8 82.9C201.5 76.9 201.6 56.2 201.8 49.2C201.9 42.2 202 43.7 202.8 41C203.6 38.3 205.4 34.9 206.6 32.8C207.9 30.7 208.7 29.9 210.4 28.4C212.2 26.9 215.4 24.8 217.4 23.7C219.4 22.6 219.7 22.2 222.5 21.9ZM205.4 119.3C234.9 119 346.9 118.7 379.9 119.2C412.9 119.7 395.7 120.3 403.6 122.1C411.5 124 420.1 127 427.3 130.2C434.4 133.3 440.9 137.2 446.4 141C451.9 144.9 456.6 149.5 460.3 153.1C464 156.6 466.1 159.1 468.7 162.2C471.2 165.2 473.3 167.6 475.6 171.3C478 174.9 480.5 178.9 483 184C485.6 189.1 488.8 195.7 491 201.8C493.3 207.9 495.2 213.7 496.8 220.5C498.3 227.2 499.7 236.3 500.5 242.3C501.2 248.4 501.3 251.6 501.4 256.9C501.5 262.2 501.7 267.1 501.2 274.2C500.7 281.4 499.5 292.7 498.4 299.7C497.4 306.7 496.9 309.1 494.9 316.1C493 323.1 489.9 333.4 486.7 341.6C483.5 349.8 478.9 359.3 475.9 365.3C472.8 371.4 471.4 373.5 468.5 378.1C465.5 382.7 462.2 387.7 458.2 392.9C454.3 398.2 449.1 404.6 444.6 409.7C440 414.8 436.1 418.8 430.9 423.6C425.8 428.4 418.9 434.2 413.6 438.4C408.3 442.5 405.4 444.6 399 448.5C392.7 452.5 383.2 458.1 375.3 462.1C367.4 466.1 359.9 469.2 351.7 472.3C343.5 475.3 333.6 478.4 326.1 480.5C318.7 482.6 315.1 483.6 307 484.9C299 486.2 286.5 487.8 277.9 488.4C269.2 489 263.4 489 255.1 488.5C246.7 488 235.3 486.8 227.8 485.6C220.2 484.5 213.2 482.6 209.5 481.5C205.9 480.5 207 480.5 205.9 479.5C204.8 478.5 203.6 478.8 203 475.6C202.3 472.3 202.1 493.6 202 460.1C202 426.5 202.3 305.7 202.7 274.2C203.2 242.7 204 271.8 205 271.1C206 270.3 194.7 270 208.6 269.6C222.6 269.3 274.8 269.4 288.8 269C302.8 268.6 291.3 268.3 292.4 267.3C293.6 266.4 294.8 266.2 295.7 263.3C296.6 260.3 297.7 249.6 297.7 249.6L296.1 248.1C296.1 248.1 224.8 248.3 209.5 248.1C194.2 247.9 205.4 247.4 204.2 246.9C203.1 246.4 203 246 202.6 245.1C202.2 244.2 202.1 250.1 202 241.4C201.9 232.8 202 201.5 202.1 193.1C202.3 184.8 202.4 191.9 203 191.3C203.6 190.7 204.2 190 205.9 189.7C207.6 189.3 193.9 189.3 213.2 189.2C232.5 189.1 302 189 321.6 189.2C341.2 189.3 327.2 189.3 330.7 190.2C334.2 191.1 338.9 192.6 342.5 194.7C346.2 196.8 349.7 199.7 352.6 202.9C355.5 206.1 358 210.3 359.9 214.1C361.7 217.9 362.9 220.8 363.6 225.9C364.2 231.1 364.6 238.8 363.8 245.1C363 251.3 361.2 257.2 358.9 263.3C356.7 269.4 353.8 275.4 350.1 281.5C346.4 287.6 340.1 295.4 336.6 299.7C333.1 304.1 332.1 304.7 328.9 307.6C325.6 310.5 322.8 313.5 317 317.3C311.3 321.2 300.3 327.6 294.3 330.8C288.2 333.9 285 334.8 280.6 336.4C276.2 337.9 275.3 338.7 267.8 340.1C260.4 341.5 236 344.9 236 344.9C236 344.9 234.8 344.5 234.6 347.1C234.4 349.7 234.5 358.1 234.5 360.8C234.6 363.4 235 362.9 235 362.9C235 362.9 234.3 363.9 236.9 364C239.4 364.1 245.4 364.1 250.5 363.6C255.7 363.1 260.6 362.9 267.8 361.2C275.1 359.6 285.8 357 294.3 353.7C302.8 350.5 311.4 346.2 318.9 341.8C326.3 337.4 332.3 333.1 338.9 327.3C345.5 321.5 353.7 312.4 358.3 307C363 301.7 364.1 299.1 366.6 295.2C369 291.2 371.1 287.4 373.1 283.3C375 279.2 377 274.7 378.5 270.6C380 266.5 380.9 264.7 382 258.7C383.1 252.8 384.6 240.5 385 235C385.5 229.6 385.1 229.1 384.7 225.9C384.3 222.7 383.6 219 382.8 215.9C382.1 212.9 381.4 210.6 380.2 207.7C379 204.8 377.4 201.5 375.7 198.6C374 195.7 372.1 193 369.9 190.4C367.7 187.8 365.3 185.2 362.6 182.8C359.9 180.5 356.5 178.2 353.5 176.4C350.4 174.6 347.6 173.1 344.4 171.9C341.2 170.7 337.5 169.8 334.3 169.2C331.2 168.5 346.9 168.4 325.2 168.1C303.6 167.9 204.4 167.6 204.4 167.6L201.9 164.9C201.9 164.9 201.8 133 202 125.7C202.2 118.4 202.5 122.2 203.1 121.2C203.6 120.1 175.9 119.7 205.4 119.3ZM142.9 120.3C150.6 119.9 177.7 119.4 177.7 119.4L179.4 121.2C179.4 121.2 179.9 405.7 179.8 463.7C179.7 521.7 178.9 469.2 178.9 469.2L174.9 472.2C174.9 472.2 171.3 471.5 166.7 469.5C162.2 467.5 153.4 463.2 147.6 460.1C141.8 457 137.7 454.6 132.1 451C126.5 447.3 121 444 113.9 438.3C106.7 432.6 96.9 424.2 89.3 416.7C81.7 409.2 74.6 401.1 68.3 393.1C62.1 385.2 56.8 377.2 51.9 369C47 360.7 42.4 351.1 39 343.5C35.6 335.9 33.5 329.5 31.6 323.4C29.6 317.3 28.6 314.6 27.1 307C25.6 299.4 23.4 287.4 22.6 277.9C21.9 268.3 21.8 259.3 22.5 249.6C23.3 239.9 24.8 228.8 27.1 219.6C29.4 210.3 34 199.8 36.3 194C38.5 188.3 38.4 189 40.8 184.9C43.3 180.9 46.6 175.1 51 169.6C55.5 164.1 61.2 157.4 67.4 152C73.6 146.6 82.3 140.9 88.4 137.2C94.4 133.5 99.2 131.8 103.9 129.8C108.6 127.8 112.1 126.6 116.6 125.3C121.2 124 126.8 122.6 131.2 121.8C135.6 120.9 135.2 120.6 142.9 120.3Z"/>
<path fill="#C45A32" fill-rule="evenodd" d="M408.1 193C406.4 193.4 403.1 194.9 401.8 195.7C400.5 196.5 400.4 197.7 400.4 197.7C400.4 197.7 405 219.3 406.5 224.1C407.9 228.9 409.1 226.5 409.1 226.5C409.1 226.5 415.5 226 417.3 225.6C419 225.2 419.6 224.1 419.6 224.1C419.6 224.1 420.8 224.7 420.2 220.5C419.5 216.2 416.8 203.2 415.6 198.6C414.3 194 412.4 193.1 412.4 193.1C412.4 193.1 409.9 192.6 408.1 193ZM408.1 249.3C408.1 249.3 407.8 246.8 406.5 251.4C405.2 256.1 400.2 277 400.2 277C400.2 277 400.7 278.4 402.7 279.2C404.6 280.1 411.8 281.8 411.8 281.8C411.8 281.8 413.3 281.9 414.7 277.9C416.1 273.9 419.1 262.1 420.1 257.8C421.1 253.6 420.6 252.4 420.6 252.4C420.6 252.4 419.3 250.5 417.3 250C415.2 249.5 408.1 249.3 408.1 249.3ZM391.7 299.5L375.2 322.5C375.2 322.5 376.5 325 378.1 326.3C379.6 327.6 384.5 330.3 384.5 330.3C384.5 330.3 386.3 330.1 387.2 329.4C388.1 328.7 387.4 329.9 390 326.1C392.5 322.4 402.3 307 402.3 307C402.3 307 402.6 305.3 400.9 304C399.1 302.8 391.7 299.5 391.7 299.5ZM358 340.5C354.2 343.4 337.5 357.1 337.5 357.1C337.5 357.1 337.4 359.1 338.5 360.8C339.7 362.4 344.4 367.1 344.4 367.1C344.4 367.1 346.8 367.1 350.7 364.2C354.7 361.3 368.1 349.6 368.1 349.6C368.1 349.6 367.2 346.6 366.4 345.3C365.5 343.9 363.8 342.5 362.9 341.6C362 340.8 360.8 340.1 360.8 340.1C360.8 340.1 361.9 337.7 358 340.5ZM316.1 367.8C311.4 369.5 289.7 378.6 289.7 378.6C289.7 378.6 289.6 381.7 290.2 383.5C290.8 385.4 293.4 389.6 293.4 389.6C293.4 389.6 293.8 390.4 296.1 389.9C298.4 389.4 302.7 388.3 307 386.6C311.3 384.9 322.1 379.9 322.1 379.9C322.1 379.9 322.5 377.8 322.2 376.3C321.8 374.7 320.6 372.1 319.9 370.8C319.2 369.5 318.6 368.8 318 368.3C317.3 367.8 320.8 366.1 316.1 367.8ZM259.6 382.6C254.7 382.9 236.4 384.5 236.4 384.5L234.7 386.3L234.8 394.5C234.8 394.5 235.9 396.2 236.9 396.7C237.8 397.1 237.3 397.2 240.5 397.1C243.7 397.1 251.6 396.8 256 396.5C260.4 396.1 266.9 394.7 266.9 394.7C266.9 394.7 268.2 394.7 268.1 392.7C268 390.6 266.3 382.6 266.3 382.6C266.3 382.6 264.6 382.3 259.6 382.6Z"/>
</svg>
